# xmcd
#
# Track frame offsets:
#	150
#	9260
#	17956
#	32248
#	41678
#	51467
#	61942
#	70838
#	81979
#	92504
#	102966
#	114407
#	123853
#	134505
#	144282
#	153747
#
# Disc length: 2201 seconds
#
# Revision: 0
# Processed by: cddbd v1.5.2PL0 Copyright (c) Steve Scherf et al.
# Submitted via: audiograbber 1.83.01
#
DISCID=d7089710
DTITLE=Various Artist - Boppin Buick
DYEAR=1900
DGENRE=
TTITLE0=Ritchie Deran - Girl and A Hot Rod
TTITLE1=Ray King - A Date At Eight
TTITLE2=Peso Dollar - Sixteen Miles
TTITLE3=Tim Dinkins - Cattin Tonight
TTITLE4=Bill Watkins - Red Cadillac
TTITLE5=Sonny Cole - Curfew Cops
TTITLE6=Mike Fernandez - Brake Jake (Original Demo)
TTITLE7=Del Vikings - Flat Tire
TTITLE8=Sonny West - Rock Ola Ruby
TTITLE9=Four Lovers - Diddilly Diddily Babe
TTITLE10=Marcel St Jean - The Big Black Jacket
TTITLE11=Satellites - Dark Town Strutters Ball
TTITLE12=Sonny West - Sweet Rockin Baby
TTITLE13=Johnny Knight - Rock And Roll Guitar
TTITLE14=Morgan Twins - Sittin In The Drive In
TTITLE15=Perry LaPuente - B. O. Rock
EXTD=
EXTT0=
EXTT1=
EXTT2=
EXTT3=
EXTT4=
EXTT5=
EXTT6=
EXTT7=
EXTT8=
EXTT9=
EXTT10=
EXTT11=
EXTT12=
EXTT13=
EXTT14=
EXTT15=
PLAYORDER=
